HIERARCHY
ROOT Hips
{
 OFFSET 0.000000 0.000000 0.000000
 CHANNELS 6 Xposition Yposition Zposition Yrotation Xrotation Zrotation
 JOINT Chest
 {
  OFFSET 0.000000 9.585900 0.002600
  CHANNELS 3 Yrotation Xrotation Zrotation
  JOINT Chest2
  {
   OFFSET 0.000000 9.601200 -0.005300
   CHANNELS 3 Yrotation Xrotation Zrotation
   JOINT Chest3
   {
    OFFSET 0.000000 9.561800 0.000000
    CHANNELS 3 Yrotation Xrotation Zrotation
    JOINT Chest4
    {
     OFFSET 0.000000 9.552100 0.000000
     CHANNELS 3 Yrotation Xrotation Zrotation
     JOINT Neck
     {
      OFFSET 0.000000 14.453000 0.000000
      CHANNELS 3 Yrotation Xrotation Zrotation
      JOINT Head
      {
       OFFSET 0.000000 8.936500 -0.011300
       CHANNELS 3 Yrotation Xrotation Zrotation
       End Site
       {
        OFFSET 0.000000 17.073600 -0.006000
       }
      }
     }
     JOINT RightCollar
     {
      OFFSET -2.921100 9.558500 0.000000
      CHANNELS 3 Yrotation Xrotation Zrotation
      JOINT RightShoulder
      {
       OFFSET -13.519700 0.000000 0.000000
       CHANNELS 3 Yrotation Xrotation Zrotation
       JOINT RightElbow
       {
        OFFSET 0.000000 -29.696600 0.000000
        CHANNELS 3 Yrotation Xrotation Zrotation
        JOINT RightWrist
        {
         OFFSET 0.000000 -24.004700 0.000000
         CHANNELS 3 Yrotation Xrotation Zrotation
         End Site
         {
          OFFSET 0.000000 -17.728500 0.000000
         }
        }
       }
      }
     }
     JOINT LeftCollar
     {
      OFFSET 2.921100 9.558500 0.000000
      CHANNELS 3 Yrotation Xrotation Zrotation
      JOINT LeftShoulder
      {
       OFFSET 13.519700 0.000000 0.000000
       CHANNELS 3 Yrotation Xrotation Zrotation
       JOINT LeftElbow
       {
        OFFSET 0.000000 -29.696600 0.000000
        CHANNELS 3 Yrotation Xrotation Zrotation
        JOINT LeftWrist
        {
         OFFSET 0.000000 -24.004700 0.000000
         CHANNELS 3 Yrotation Xrotation Zrotation
         End Site
         {
          OFFSET 0.000000 -17.728500 0.000000
         }
        }
       }
      }
     }
    }
   }
  }
 }
 JOINT RightHip
 {
  OFFSET -7.771700 -0.012900 -0.001300
  CHANNELS 3 Yrotation Xrotation Zrotation
  JOINT RightKnee
  {
   OFFSET 0.000000 -40.869800 0.001200
   CHANNELS 3 Yrotation Xrotation Zrotation
   JOINT RightAnkle
   {
    OFFSET 0.000000 -39.717900 0.002100
    CHANNELS 3 Yrotation Xrotation Zrotation
    JOINT RightToe
    {
     OFFSET 0.000000 -4.965400 11.033500
     CHANNELS 3 Yrotation Xrotation Zrotation
     End Site
     {
      OFFSET 0.000000 -1.423100 5.872300
     }
    }
   }
  }
 }
 JOINT LeftHip
 {
  OFFSET 7.771700 -0.012900 -0.001300
  CHANNELS 3 Yrotation Xrotation Zrotation
  JOINT LeftKnee
  {
   OFFSET 0.000000 -40.869800 0.001200
   CHANNELS 3 Yrotation Xrotation Zrotation
   JOINT LeftAnkle
   {
    OFFSET 0.000000 -39.717900 0.002100
    CHANNELS 3 Yrotation Xrotation Zrotation
    JOINT LeftToe
    {
     OFFSET 0.000000 -4.965400 11.033500
     CHANNELS 3 Yrotation Xrotation Zrotation
     End Site
     {
      OFFSET 0.000000 -1.423100 5.872300
     }
    }
   }
  }
 }
}
MOTION
Frames: 16
Frame Time: 0.008333
11.515348 52.160913 40.585356 169.480368 -39.344512 -1.310548 3.944250 22.184960 2.389144 0.468556 3.101737 0.441084 0.711504 5.126767 0.704447 3.088536 18.721255 3.029913 2.791725 15.860816 -1.564989 5.694972 -5.972458 -3.800593 -4.853102 -1.659302 -3.376094 -4.608512 -4.070620 4.860933 -116.638284 -66.123076 134.342309 -5.225222 -2.522546 22.535622 -4.922377 0.807992 0.259079 11.846214 -4.241845 3.327599 136.981181 -64.789935 -166.892501 -8.048743 -7.078765 16.192481 -3.668264 -42.623407 5.514056 105.888776 85.645120 109.660367 -4.534151 -7.868951 -2.471576 0.561387 -1.037090 0.245438 2.150578 -38.590438 6.625084 74.114180 82.746825 64.122238 -6.328498 -12.193797 9.155314 0.517611 1.389495 0.242325
11.514540 52.157520 40.586167 169.470947 -39.336236 -1.325579 3.936207 22.211753 2.389289 0.467099 3.110346 0.444790 0.703959 5.158790 0.700906 3.086643 18.731916 3.028306 2.799189 15.923260 -1.523363 5.733494 -6.036487 -3.807622 -4.834398 -1.625533 -3.357837 -4.574396 -4.140704 4.851645 -116.639794 -66.307505 134.252665 -5.128079 -2.516027 22.136856 -4.903986 0.854977 0.256363 11.805984 -4.178457 3.099942 136.900729 -64.911841 -166.664894 -8.064686 -7.189410 17.503924 -3.679219 -42.631517 5.536023 105.825680 85.642306 109.608981 -4.547288 -7.867391 -2.481436 0.570813 -1.036739 0.248887 2.165285 -38.607193 6.633603 74.155975 82.751682 64.181454 -6.315392 -12.198977 9.162416 0.495369 1.385392 0.233405
11.513498 52.155888 40.585532 169.461851 -39.337292 -1.339133 3.934306 22.238681 2.393744 0.459382 3.130840 0.441114 0.704553 5.173226 0.702113 3.079061 18.757288 3.025678 2.813653 15.919759 -1.504062 5.755801 -6.061566 -3.796754 -4.811957 -1.611084 -3.345288 -4.537507 -4.174828 4.836528 -116.478544 -66.434905 134.028536 -5.053968 -2.498156 21.800611 -4.881194 0.903464 0.259252 11.788273 -4.121533 2.878952 136.345280 -64.996353 -166.055806 -7.974773 -7.330593 18.569964 -3.697111 -42.627635 5.556571 105.775542 85.639491 109.559733 -4.533271 -7.865844 -2.484483 0.568052 -1.036364 0.246205 2.162748 -38.608517 6.653689 74.203692 82.752238 64.230336 -6.307967 -12.208448 9.163408 0.503303 1.381531 0.231512
11.511981 52.154871 40.584828 169.453511 -39.336140 -1.350835 3.942149 22.245178 2.406651 0.441885 3.166927 0.432030 0.703243 5.192188 0.702135 3.074206 18.783556 3.023537 2.841661 15.851449 -1.505491 5.746047 -6.021267 -3.738865 -4.791623 -1.598676 -3.338825 -4.495917 -4.191520 4.818049 -116.225682 -66.516338 133.736703 -5.008865 -2.485675 21.496158 -4.855430 0.949389 0.262283 11.785825 -4.070197 2.668053 135.367282 -65.045990 -165.102320 -7.805618 -7.503567 19.418215 -3.716152 -42.626072 5.577322 105.751475 85.642404 109.534304 -4.522885 -7.861404 -2.483945 0.569006 -1.038693 0.241996 2.163769 -38.611281 6.668275 74.230439 82.754034 64.259381 -6.296513 -12.216239 9.168511 0.496938 1.380015 0.227492
11.512714 52.155775 40.582939 169.425132 -39.345172 -1.361304 3.953393 22.290062 2.415173 0.442062 3.177321 0.432515 0.703145 5.212142 0.704215 3.084810 18.762228 3.024178 2.833889 15.884333 -1.485347 5.740015 -6.029291 -3.696663 -4.789913 -1.546860 -3.339347 -4.453108 -4.188650 4.796581 -115.952486 -66.575031 133.446129 -4.991106 -2.495528 21.197217 -4.842709 1.039847 0.262285 11.789873 -4.025846 2.472502 134.054416 -65.058891 -163.875247 -7.582228 -7.695047 20.090984 -3.725497 -42.612833 5.613108 105.719898 85.652350 109.503937 -4.508413 -7.855172 -2.489497 0.562407 -1.040351 0.245540 2.167582 -38.602390 6.703039 74.278821 82.768978 64.303582 -6.266311 -12.232930 9.178860 0.476912 1.376851 0.219729
11.512216 52.156392 40.581654 169.408636 -39.344459 -1.371045 3.931382 22.369738 2.397464 0.447660 3.187682 0.436140 0.725764 5.193410 0.713453 3.087758 18.738383 3.022694 2.821518 15.918549 -1.465992 5.729216 -6.059896 -3.678284 -4.785776 -1.499214 -3.343114 -4.412809 -4.166532 4.770873 -115.717204 -66.626324 133.210572 -4.990318 -2.538152 20.897273 -4.822153 1.130229 0.261851 11.788653 -3.989508 2.296615 132.539262 -65.035274 -162.479870 -7.332307 -7.886990 20.625909 -3.738702 -42.608521 5.639209 105.701454 85.664318 109.487406 -4.499696 -7.853640 -2.497503 0.570218 -1.040205 0.247149 2.161507 -38.601082 6.730165 74.290005 82.772454 64.311153 -6.262623 -12.240622 9.180168 0.475244 1.376880 0.218524
11.510744 52.157115 40.580303 169.400874 -39.339163 -1.377569 3.931463 22.407817 2.398147 0.444397 3.213618 0.434511 0.732250 5.198839 0.716450 3.073182 18.844220 3.018681 2.822587 15.822334 -1.460422 5.733951 -6.117827 -3.685893 -4.758745 -1.631345 -3.336186 -4.376946 -4.078247 4.731219 -115.553453 -66.672319 133.060885 -4.990415 -2.618404 20.594654 -4.778134 1.087633 0.271080 11.774189 -3.961552 2.140811 130.976122 -64.989780 -161.041391 -7.089778 -8.072767 21.055465 -3.779670 -42.604253 5.662503 105.617579 85.657662 109.386483 -4.479086 -7.860584 -2.501926 0.554253 -1.032058 0.241282 2.154234 -38.604621 6.747545 74.306403 82.771279 64.322758 -6.271808 -12.239977 9.182384 0.473684 1.371998 0.217504
11.509294 52.157691 40.579182 169.395606 -39.328440 -1.381943 3.934024 22.442437 2.396667 0.445935 3.225926 0.435410 0.734612 5.217699 0.717748 3.074863 18.899960 3.019497 2.804344 15.774733 -1.450105 5.685342 -6.151160 -3.657925 -4.753201 -1.717133 -3.331787 -4.341187 -3.974135 4.685005 -115.464416 -66.716427 132.997516 -4.981813 -2.730646 20.288123 -4.751621 1.086533 0.280715 11.746201 -3.939253 2.004366 129.524054 -64.940505 -159.691571 -6.875167 -8.242472 21.405407 -3.801817 -42.609974 5.675196 105.586776 85.655371 109.347657 -4.462699 -7.861891 -2.504632 0.551016 -1.030585 0.238752 2.151449 -38.613006 6.758485 74.301559 82.771353 64.315603 -6.282417 -12.240359 9.183153 0.477320 1.369138 0.218212
11.509173 52.158177 40.578314 169.394312 -39.313921 -1.391894 3.938575 22.474490 2.401301 0.447423 3.237973 0.436212 0.736960 5.236038 0.719060 3.078475 18.928356 3.019740 2.781596 15.750799 -1.443140 5.629178 -6.183365 -3.629267 -4.766079 -1.665926 -3.348932 -4.300340 -3.970140 4.663143 -115.438088 -66.763949 133.001478 -4.967907 -2.857945 19.992131 -4.727572 1.101789 0.291698 11.708977 -3.916746 1.887415 128.310340 -64.904382 -158.540712 -6.696724 -8.382905 21.700565 -3.827966 -42.617533 5.688555 105.584030 85.667389 109.348785 -4.452509 -7.865302 -2.511259 0.552996 -1.029541 0.236507 2.144112 -38.626332 6.773790 74.297095 82.772580 64.309757 -6.290767 -12.240091 9.183461 0.487450 1.367714 0.220115
11.510733 52.159589 40.576348 169.388892 -39.306368 -1.402280 3.948554 22.489774 2.413834 0.448103 3.243934 0.436564 0.738746 5.283473 0.719821 3.080784 18.955660 3.019398 2.759635 15.731231 -1.439536 5.585045 -6.224935 -3.612445 -4.774584 -1.664440 -3.369539 -4.265810 -3.907656 4.636400 -115.455384 -66.815273 133.051924 -4.953120 -2.984594 19.729620 -4.700802 1.107382 0.304843 11.667969 -3.890022 1.787399 127.404525 -64.900178 -157.658753 -6.561214 -8.490877 21.966030 -3.849050 -42.619229 5.705363 105.561325 85.670669 109.330693 -4.444304 -7.862365 -2.524111 0.556790 -1.034294 0.237478 2.139647 -38.632343 6.788925 74.306467 82.774226 64.320695 -6.279163 -12.245339 9.176018 0.486366 1.365828 0.225025
11.511147 52.160312 40.574504 169.383127 -39.291983 -1.399962 3.952810 22.498983 2.413061 0.448731 3.249759 0.436851 0.741859 5.330611 0.720400 3.082701 18.981586 3.019025 2.735659 15.712039 -1.434688 5.541700 -6.262126 -3.596712 -4.777005 -1.726874 -3.376005 -4.242782 -3.775025 4.591434 -115.486742 -66.863328 133.122846 -4.935240 -3.093763 19.521188 -4.671939 1.105311 0.323303 11.627618 -3.858255 1.702692 126.829420 -64.935767 -157.073216 -6.477356 -8.567445 22.214350 -3.853546 -42.631012 5.706577 105.550446 85.667371 109.322020 -4.443629 -7.864094 -2.528736 0.556697 -1.035577 0.236823 2.147256 -38.643701 6.779668 74.288134 82.769515 64.314008 -6.277756 -12.252598 9.163177 0.490487 1.369516 0.228358
11.512268 52.160935 40.572456 169.376931 -39.276035 -1.395366 3.958813 22.532325 2.409129 0.452804 3.319764 0.437895 0.742565 5.286388 0.722042 3.085113 19.006223 3.018244 2.695044 15.757947 -1.419705 5.514213 -6.354819 -3.599577 -4.779496 -1.787806 -3.384320 -4.226504 -3.640313 4.552568 -115.497529 -66.897076 133.179160 -4.909931 -3.167620 19.383439 -4.641526 1.098240 0.346036 11.587594 -3.822720 1.635590 126.556832 -65.007681 -156.781652 -6.464264 -8.615517 22.471980 -3.852330 -42.644382 5.701885 105.537476 85.662366 109.315387 -4.442642 -7.868865 -2.532545 0.553787 -1.035810 0.234911 2.155986 -38.656708 6.774403 74.267755 82.774347 64.297876 -6.273701 -12.257965 9.163591 0.475914 1.368627 0.222792
11.512914 52.160649 40.570870 169.377075 -39.251685 -1.386784 3.958842 22.558116 2.398234 0.453098 3.326834 0.441366 0.744474 5.301079 0.722680 3.087921 19.028789 3.017021 2.666992 15.768009 -1.410764 5.505068 -6.429510 -3.610239 -4.793293 -1.807388 -3.410173 -4.204352 -3.543372 4.537864 -115.462965 -66.911222 133.194939 -4.877292 -3.196567 19.324432 -4.611052 1.091316 0.369573 11.543684 -3.786821 1.588971 126.535744 -65.103803 -156.744361 -6.525184 -8.640363 22.752014 -3.849801 -42.668184 5.683265 105.547717 85.650907 109.337877 -4.445280 -7.876582 -2.544811 0.556998 -1.036618 0.238537 2.165482 -38.677063 6.759429 74.241373 82.773483 64.273256 -6.274101 -12.264498 9.164872 0.471017 1.372806 0.219613
11.515173 52.161113 40.568152 169.376930 -39.234723 -1.381002 3.957196 22.587949 2.393935 0.456795 3.335210 0.440665 0.746272 5.313547 0.723033 3.090845 19.047993 3.015397 2.645072 15.763467 -1.403874 5.446335 -6.424612 -3.578306 -4.806455 -1.821414 -3.437182 -4.188350 -3.451527 4.530978 -115.367981 -66.906651 133.153774 -4.840413 -3.175387 19.346434 -4.582904 1.088794 0.393346 11.501350 -3.780397 1.557723 126.661425 -65.227745 -156.847347 -6.637693 -8.652633 23.034514 -3.850133 -42.684219 5.669834 105.548339 85.634134 109.352408 -4.456495 -7.881202 -2.561857 0.563536 -1.040539 0.242358 2.172170 -38.689514 6.749954 74.218998 82.774139 64.253591 -6.271419 -12.272241 9.161868 0.473759 1.375648 0.218967
11.518666 52.161242 40.565635 169.376445 -39.215221 -1.378007 3.962352 22.614561 2.394473 0.454065 3.329719 0.438573 0.749167 5.335946 0.723527 3.089937 19.026328 3.012382 2.627258 15.802574 -1.395723 5.392168 -6.405164 -3.545110 -4.846761 -1.735678 -3.500588 -4.161742 -3.423795 4.571961 -115.215573 -66.890070 133.058862 -4.800375 -3.110700 19.444945 -4.556872 1.129078 0.413309 11.439689 -3.751370 1.559620 126.948670 -65.320755 -157.091815 -6.775957 -8.667963 23.302569 -3.854853 -42.702832 5.664609 105.571584 85.620250 109.388418 -4.468149 -7.885684 -2.579855 0.574046 -1.044635 0.246931 2.176769 -38.706047 6.744397 74.231174 82.768639 64.273417 -6.283196 -12.279549 9.151490 0.487227 1.379782 0.223539
11.522552 52.160987 40.563283 169.367566 -39.193315 -1.368863 3.968565 22.640423 2.389023 0.454475 3.295576 0.438812 0.754502 5.380413 0.724366 3.086841 19.007994 3.008944 2.612409 15.841419 -1.389863 5.355226 -6.392355 -3.523195 -4.871365 -1.718587 -3.530720 -4.158432 -3.337119 4.582569 -115.041124 -66.874626 132.944476 -4.757812 -3.023285 19.603274 -4.544674 1.129721 0.424992 11.372258 -3.663293 1.607336 127.310497 -65.372728 -157.415083 -6.912116 -8.700160 23.557888 -3.855331 -42.725036 5.663563 105.606330 85.610565 109.428673 -4.471045 -7.889762 -2.593460 0.576580 -1.046935 0.250646 2.190261 -38.725757 6.738637 74.286503 82.759206 64.331985 -6.293355 -12.286116 9.150095 0.486347 1.380541 0.223035
